<svg width="16" height="20" viewBox="0 0 16 20"><g><g><path fill="#fe3e57" d="M15.999 17.294c.004.017.004.033.004.05 0 1.468-1.345 2.662-3 2.662H3.007c-1.655 0-3-1.194-3-2.663 0-.016.004-.032.004-.05L1.156 4.397a.548.548 0 0 1 .547-.504h2.354A3.953 3.953 0 0 1 8.005.002a3.953 3.953 0 0 1 3.948 3.89h2.354a.55.55 0 0 1 .547.504zM8.005 1.106a2.849 2.849 0 0 0-2.844 2.786h5.688a2.849 2.849 0 0 0-2.844-2.786zm4.998 17.796c1.034 0 1.88-.687 1.896-1.534L13.8 5.001h-1.847v1.677a.55.55 0 0 1-.552.552.55.55 0 0 1-.552-.552V5H5.157v1.677a.55.55 0 0 1-.552.552.55.55 0 0 1-.552-.552V5H2.206L1.111 17.368c.016.847.858 1.534 1.896 1.534z"/></g></g></svg>