<svg width="23" height="20" viewBox="0 0 23 20"><g><g><path fill="#29282d" d="M21.327 1.964c1.083 1.208 1.679 2.827 1.679 4.557 0 1.884-.748 3.636-2.353 5.513-1.434 1.68-3.497 3.41-5.887 5.413a271.15 271.15 0 0 0-2.791 2.363l-.03.024a.677.677 0 0 1-.888 0l-.03-.024c-.98-.845-1.9-1.617-2.79-2.363-2.39-2.004-4.454-3.734-5.888-5.413C.744 10.157-.004 8.405-.004 6.521c0-1.73.597-3.349 1.68-4.557C2.81.697 4.383-.001 6.107-.001c2.425 0 3.96 1.424 4.82 2.62.224.31.414.62.573.913.16-.293.35-.603.573-.914.86-1.195 2.396-2.62 4.82-2.62 1.724 0 3.298.698 4.433 1.966zm.33 4.557c0-1.407-.476-2.715-1.341-3.68a4.532 4.532 0 0 0-3.422-1.516c-1.848 0-3.043 1.12-3.72 2.06a7.817 7.817 0 0 0-1.032 2.019.673.673 0 0 1-.64.458.673.673 0 0 1-.642-.458 7.825 7.825 0 0 0-1.032-2.019c-.677-.94-1.871-2.06-3.72-2.06A4.532 4.532 0 0 0 2.687 2.84c-.866.966-1.342 2.274-1.342 3.681 0 3.405 3.089 5.995 7.766 9.916.767.644 1.557 1.306 2.39 2.018.833-.712 1.623-1.375 2.39-2.018 4.677-3.92 7.767-6.511 7.767-9.916z"/></g></g></svg>