<svg xmlns="http://www.w3.org/2000/svg" width="344" height="884" viewBox="0 0 344 884"><defs><clipPath id="mnjra"><path fill="#fff" d="M287.973 138.647s-40.74 133.564-63.422 183.246c-22.683 49.683-53.735 87.51-107.626 128.637-53.89 41.127-79.306 134.63 10.57 247.564 89.877 112.934 156.285 145.323 172.009 156.548"/></clipPath><clipPath id="mnjrb"><path fill="#fff" d="M290.856 10.01s-27.483-1.026-61.5 126.21c-34.018 127.235-50.414 162.541-75.915 208.731-25.5 46.19-52.786 75.047-89.367 100.724-36.582 25.678-96.74 100.68-7.688 231.788 89.052 131.11 249.944 230.417 276.75 185.674"/></clipPath><mask id="mnjrd" width="2" height="2" x="-1" y="-1"><path fill="#fff" d="M137 565h35v36h-35z"/><path d="M154.484 565c9.674 0 17.516 8.059 17.516 18s-7.842 18-17.516 18c-9.673 0-17.515-8.059-17.515-18s7.842-18 17.515-18z"/></mask><filter id="mnjrc" width="65" height="69" x="122" y="550" filterUnits="userSpaceOnUse"><feOffset dy="3" in="SourceGraphic" result="FeOffset1171Out"/><feGaussianBlur in="FeOffset1171Out" result="FeGaussianBlur1172Out" stdDeviation="2 2"/></filter><clipPath id="mnjre"><path fill="#fff" d="M154.484 565c9.674 0 17.516 8.059 17.516 18s-7.842 18-17.516 18c-9.673 0-17.515-8.059-17.515-18s7.842-18 17.515-18z"/></clipPath><mask id="mnjrg" width="2" height="2" x="-1" y="-1"><path fill="#fff" d="M110 235h11v11h-11z"/><path d="M115.469 235a5.5 5.5 0 1 1 0 11 5.5 5.5 0 0 1 0-11z"/></mask><filter id="mnjrf" width="41" height="44" x="95" y="220" filterUnits="userSpaceOnUse"><feOffset dy="3" in="SourceGraphic" result="FeOffset1189Out"/><feGaussianBlur in="FeOffset1189Out" result="FeGaussianBlur1190Out" stdDeviation="2 2"/></filter><clipPath id="mnjrh"><path fill="#fff" d="M115.469 235a5.5 5.5 0 1 1 0 11 5.5 5.5 0 0 1 0-11z"/></clipPath><mask id="mnjrj" width="2" height="2" x="-1" y="-1"><path fill="#fff" d="M202 702h13v13h-13z"/><path d="M206.92 708.527l-3.795-3.957a1.273 1.273 0 0 1 0-1.747 1.15 1.15 0 0 1 1.676 0l3.795 3.957 3.795-3.957a1.15 1.15 0 0 1 1.675 0 1.273 1.273 0 0 1 0 1.747l-3.795 3.957 3.795 3.958a1.273 1.273 0 0 1 0 1.747 1.15 1.15 0 0 1-1.675 0l-3.795-3.957-3.795 3.957a1.15 1.15 0 0 1-1.676 0 1.273 1.273 0 0 1 0-1.747z"/></mask><filter id="mnjri" width="43" height="46" x="187" y="687" filterUnits="userSpaceOnUse"><feOffset dy="3" in="SourceGraphic" result="FeOffset1207Out"/><feGaussianBlur in="FeOffset1207Out" result="FeGaussianBlur1208Out" stdDeviation="2 2"/></filter><mask id="mnjrl" width="2" height="2" x="-1" y="-1"><path fill="#fff" d="M208 454h12v12h-12z"/><path d="M213.988 454.343l5.658 5.657-5.658 5.656-5.657-5.656z"/></mask><filter id="mnjrk" width="42" height="45" x="193" y="439" filterUnits="userSpaceOnUse"><feOffset dy="3" in="SourceGraphic" result="FeOffset1223Out"/><feGaussianBlur in="FeOffset1223Out" result="FeGaussianBlur1224Out" stdDeviation="2 2"/></filter><mask id="mnjrn" width="2" height="2" x="-1" y="-1"><path fill="#fff" d="M38 371h12v13H38z"/><path d="M42.275 377.194l-3.795-3.957a1.273 1.273 0 0 1 0-1.747 1.151 1.151 0 0 1 1.675 0l3.796 3.957 3.795-3.957a1.151 1.151 0 0 1 1.675 0 1.273 1.273 0 0 1 0 1.747l-3.795 3.957 3.795 3.958a1.273 1.273 0 0 1 0 1.746 1.151 1.151 0 0 1-1.675 0l-3.795-3.957-3.796 3.957a1.151 1.151 0 0 1-1.675 0 1.273 1.273 0 0 1 0-1.746z"/></mask><filter id="mnjrm" width="42" height="46" x="23" y="356" filterUnits="userSpaceOnUse"><feOffset dy="3" in="SourceGraphic" result="FeOffset1239Out"/><feGaussianBlur in="FeOffset1239Out" result="FeGaussianBlur1240Out" stdDeviation="2 2"/></filter><mask id="mnjrp" width="2" height="2" x="-1" y="-1"><path fill="#fff" d="M178 83h13v13h-13z"/><path d="M182.566 89.55l-3.795-3.958a1.273 1.273 0 0 1 0-1.747 1.15 1.15 0 0 1 1.676 0l3.795 3.957 3.795-3.957a1.15 1.15 0 0 1 1.675 0 1.273 1.273 0 0 1 0 1.747l-3.795 3.957 3.795 3.957a1.274 1.274 0 0 1 0 1.748 1.15 1.15 0 0 1-1.675 0l-3.795-3.957-3.795 3.957a1.15 1.15 0 0 1-1.676 0 1.274 1.274 0 0 1 0-1.748z"/></mask><filter id="mnjro" width="43" height="46" x="163" y="68" filterUnits="userSpaceOnUse"><feOffset dy="3" in="SourceGraphic" result="FeOffset1255Out"/><feGaussianBlur in="FeOffset1255Out" result="FeGaussianBlur1256Out" stdDeviation="2 2"/></filter></defs><g><g><path fill="none" stroke="#ececec" stroke-miterlimit="20" stroke-width="2" d="M287.973 138.647v0s-40.74 133.564-63.422 183.246c-22.683 49.683-53.735 87.51-107.626 128.637-53.89 41.127-79.306 134.63 10.57 247.564 89.877 112.934 156.285 145.323 172.009 156.548" clip-path="url(&quot;#mnjra&quot;)"/></g><g><path fill="none" stroke="#ececec" stroke-miterlimit="20" stroke-width="2" d="M290.856 10.01v0s-27.483-1.026-61.5 126.21c-34.018 127.235-50.414 162.541-75.915 208.731-25.5 46.19-52.786 75.047-89.367 100.724-36.582 25.678-96.74 100.68-7.688 231.788 89.052 131.11 249.944 230.417 276.75 185.674" clip-path="url(&quot;#mnjrb&quot;)"/></g><g><g filter="url(#mnjrc)"><path fill="none" d="M154.484 565c9.674 0 17.516 8.059 17.516 18s-7.842 18-17.516 18c-9.673 0-17.515-8.059-17.515-18s7.842-18 17.515-18z" mask="url(&quot;#mnjrd&quot;)"/><path fill="#fe3e57" fill-opacity=".4" d="M154.484 565c9.674 0 17.516 8.059 17.516 18s-7.842 18-17.516 18c-9.673 0-17.515-8.059-17.515-18s7.842-18 17.515-18z"/></g><path fill="none" stroke="#fe3e57" stroke-miterlimit="20" stroke-width="4" d="M154.484 565c9.674 0 17.516 8.059 17.516 18s-7.842 18-17.516 18c-9.673 0-17.515-8.059-17.515-18s7.842-18 17.515-18z" clip-path="url(&quot;#mnjre&quot;)"/></g><g><g filter="url(#mnjrf)"><path fill="none" d="M115.469 235a5.5 5.5 0 1 1 0 11 5.5 5.5 0 0 1 0-11z" mask="url(&quot;#mnjrg&quot;)"/><path fill="#34c3ff" fill-opacity=".4" d="M115.469 235a5.5 5.5 0 1 1 0 11 5.5 5.5 0 0 1 0-11z"/></g><path fill="none" stroke="#34c3ff" stroke-miterlimit="20" stroke-width="4" d="M115.469 235a5.5 5.5 0 1 1 0 11 5.5 5.5 0 0 1 0-11z" clip-path="url(&quot;#mnjrh&quot;)"/></g><g><g filter="url(#mnjri)"><path fill="none" d="M206.92 708.527l-3.795-3.957a1.273 1.273 0 0 1 0-1.747 1.15 1.15 0 0 1 1.676 0l3.795 3.957 3.795-3.957a1.15 1.15 0 0 1 1.675 0 1.273 1.273 0 0 1 0 1.747l-3.795 3.957 3.795 3.958a1.273 1.273 0 0 1 0 1.747 1.15 1.15 0 0 1-1.675 0l-3.795-3.957-3.795 3.957a1.15 1.15 0 0 1-1.676 0 1.273 1.273 0 0 1 0-1.747z" mask="url(&quot;#mnjrj&quot;)"/><path fill="#34c3ff" fill-opacity=".4" d="M206.92 708.527l-3.795-3.957a1.273 1.273 0 0 1 0-1.747 1.15 1.15 0 0 1 1.676 0l3.795 3.957 3.795-3.957a1.15 1.15 0 0 1 1.675 0 1.273 1.273 0 0 1 0 1.747l-3.795 3.957 3.795 3.958a1.273 1.273 0 0 1 0 1.747 1.15 1.15 0 0 1-1.675 0l-3.795-3.957-3.795 3.957a1.15 1.15 0 0 1-1.676 0 1.273 1.273 0 0 1 0-1.747z"/></g><path fill="#34c3ff" d="M206.92 708.527l-3.795-3.957a1.273 1.273 0 0 1 0-1.747 1.15 1.15 0 0 1 1.676 0l3.795 3.957 3.795-3.957a1.15 1.15 0 0 1 1.675 0 1.273 1.273 0 0 1 0 1.747l-3.795 3.957 3.795 3.958a1.273 1.273 0 0 1 0 1.747 1.15 1.15 0 0 1-1.675 0l-3.795-3.957-3.795 3.957a1.15 1.15 0 0 1-1.676 0 1.273 1.273 0 0 1 0-1.747z"/></g><g><g filter="url(#mnjrk)"><path fill="none" d="M213.988 454.343l5.658 5.657-5.658 5.656-5.657-5.656z" mask="url(&quot;#mnjrl&quot;)"/><path fill="#5800e4" fill-opacity=".4" d="M213.988 454.343l5.658 5.657-5.658 5.656-5.657-5.656z"/></g><path fill="#5800e4" d="M213.988 454.343l5.658 5.657-5.658 5.656-5.657-5.656z"/></g><g><g filter="url(#mnjrm)"><path fill="none" d="M42.275 377.194l-3.795-3.957a1.273 1.273 0 0 1 0-1.747 1.151 1.151 0 0 1 1.675 0l3.796 3.957 3.795-3.957a1.151 1.151 0 0 1 1.675 0 1.273 1.273 0 0 1 0 1.747l-3.795 3.957 3.795 3.958a1.273 1.273 0 0 1 0 1.746 1.151 1.151 0 0 1-1.675 0l-3.795-3.957-3.796 3.957a1.151 1.151 0 0 1-1.675 0 1.273 1.273 0 0 1 0-1.746z" mask="url(&quot;#mnjrn&quot;)"/><path fill="#ffb534" fill-opacity=".4" d="M42.275 377.194l-3.795-3.957a1.273 1.273 0 0 1 0-1.747 1.151 1.151 0 0 1 1.675 0l3.796 3.957 3.795-3.957a1.151 1.151 0 0 1 1.675 0 1.273 1.273 0 0 1 0 1.747l-3.795 3.957 3.795 3.958a1.273 1.273 0 0 1 0 1.746 1.151 1.151 0 0 1-1.675 0l-3.795-3.957-3.796 3.957a1.151 1.151 0 0 1-1.675 0 1.273 1.273 0 0 1 0-1.746z"/></g><path fill="#ffb534" d="M42.275 377.194l-3.795-3.957a1.273 1.273 0 0 1 0-1.747 1.151 1.151 0 0 1 1.675 0l3.796 3.957 3.795-3.957a1.151 1.151 0 0 1 1.675 0 1.273 1.273 0 0 1 0 1.747l-3.795 3.957 3.795 3.958a1.273 1.273 0 0 1 0 1.746 1.151 1.151 0 0 1-1.675 0l-3.795-3.957-3.796 3.957a1.151 1.151 0 0 1-1.675 0 1.273 1.273 0 0 1 0-1.746z"/></g><g><g filter="url(#mnjro)"><path fill="none" d="M182.566 89.55l-3.795-3.958a1.273 1.273 0 0 1 0-1.747 1.15 1.15 0 0 1 1.676 0l3.795 3.957 3.795-3.957a1.15 1.15 0 0 1 1.675 0 1.273 1.273 0 0 1 0 1.747l-3.795 3.957 3.795 3.957a1.274 1.274 0 0 1 0 1.748 1.15 1.15 0 0 1-1.675 0l-3.795-3.957-3.795 3.957a1.15 1.15 0 0 1-1.676 0 1.274 1.274 0 0 1 0-1.748z" mask="url(&quot;#mnjrp&quot;)"/><path fill="#fe3e57" fill-opacity=".4" d="M182.566 89.55l-3.795-3.958a1.273 1.273 0 0 1 0-1.747 1.15 1.15 0 0 1 1.676 0l3.795 3.957 3.795-3.957a1.15 1.15 0 0 1 1.675 0 1.273 1.273 0 0 1 0 1.747l-3.795 3.957 3.795 3.957a1.274 1.274 0 0 1 0 1.748 1.15 1.15 0 0 1-1.675 0l-3.795-3.957-3.795 3.957a1.15 1.15 0 0 1-1.676 0 1.274 1.274 0 0 1 0-1.748z"/></g><path fill="#fe3e57" d="M182.566 89.55l-3.795-3.958a1.273 1.273 0 0 1 0-1.747 1.15 1.15 0 0 1 1.676 0l3.795 3.957 3.795-3.957a1.15 1.15 0 0 1 1.675 0 1.273 1.273 0 0 1 0 1.747l-3.795 3.957 3.795 3.957a1.274 1.274 0 0 1 0 1.748 1.15 1.15 0 0 1-1.675 0l-3.795-3.957-3.795 3.957a1.15 1.15 0 0 1-1.676 0 1.274 1.274 0 0 1 0-1.748z"/></g></g></svg>