<svg xmlns="http://www.w3.org/2000/svg" width="269" height="686" viewBox="0 0 269 686"><defs><clipPath id="893na"><path fill="#fff" d="M44.802 576.803S76.085 474 93.502 435.758c17.418-38.24 41.263-67.356 82.645-99.012 41.381-31.655 60.898-103.625-8.117-190.551C99.015 59.27 48.02 34.34 35.947 25.7"/></clipPath><clipPath id="893nb"><path fill="#fff" d="M42.588 675.815s21.104.79 47.225-97.144c26.121-97.933 38.712-125.108 58.294-160.66 19.581-35.552 40.534-57.764 68.624-77.528 28.09-19.764 74.285-77.494 5.903-178.408C154.252 61.16 30.705-15.277 10.12 19.16"/></clipPath><mask id="893nd" width="2" height="2" x="-1" y="-1"><path fill="#fff" d="M133 220h28v29h-28z"/><path d="M147.328 220.937c7.43 0 13.453 6.198 13.453 13.844 0 7.646-6.023 13.844-13.453 13.844s-13.453-6.198-13.453-13.844c0-7.646 6.023-13.844 13.453-13.844z"/></mask><filter id="893nc" width="58" height="62" x="118" y="205" filterUnits="userSpaceOnUse"><feOffset dy="3" in="SourceGraphic" result="FeOffset1037Out"/><feGaussianBlur in="FeOffset1037Out" result="FeGaussianBlur1038Out" stdDeviation="2 2"/></filter><clipPath id="893ne"><path fill="#fff" d="M147.328 220.937c7.43 0 13.453 6.198 13.453 13.844 0 7.646-6.023 13.844-13.453 13.844s-13.453-6.198-13.453-13.844c0-7.646 6.023-13.844 13.453-13.844z"/></clipPath><mask id="893ng" width="2" height="2" x="-1" y="-1"><path fill="#fff" d="M172 478h9v9h-9z"/><path d="M176.281 478.187a4.227 4.227 0 0 1 4.219 4.235 4.227 4.227 0 0 1-4.219 4.234 4.227 4.227 0 0 1-4.219-4.234 4.226 4.226 0 0 1 4.22-4.235z"/></mask><filter id="893nf" width="39" height="42" x="157" y="463" filterUnits="userSpaceOnUse"><feOffset dy="3" in="SourceGraphic" result="FeOffset1055Out"/><feGaussianBlur in="FeOffset1055Out" result="FeGaussianBlur1056Out" stdDeviation="2 2"/></filter><clipPath id="893nh"><path fill="#fff" d="M176.281 478.187a4.227 4.227 0 0 1 4.219 4.235 4.227 4.227 0 0 1-4.219 4.234 4.227 4.227 0 0 1-4.219-4.234 4.226 4.226 0 0 1 4.22-4.235z"/></clipPath><mask id="893nj" width="2" height="2" x="-1" y="-1"><path fill="#fff" d="M101 133h10v10h-10z"/><path d="M107.04 138.164l2.915 3.047a.981.981 0 0 1 0 1.344.881.881 0 0 1-1.287 0l-2.914-3.046-2.914 3.046a.881.881 0 0 1-1.287 0 .981.981 0 0 1 0-1.344l2.915-3.047-2.915-3.046a.982.982 0 0 1 0-1.345.883.883 0 0 1 1.287 0l2.914 3.047 2.914-3.047a.883.883 0 0 1 1.287 0 .982.982 0 0 1 0 1.345z"/></mask><filter id="893ni" width="40" height="43" x="86" y="118" filterUnits="userSpaceOnUse"><feOffset dy="3" in="SourceGraphic" result="FeOffset1073Out"/><feGaussianBlur in="FeOffset1073Out" result="FeGaussianBlur1074Out" stdDeviation="2 2"/></filter><mask id="893nl" width="2" height="2" x="-1" y="-1"><path fill="#fff" d="M97 325h9v9h-9z"/><path d="M101.613 333.811l-4.344-4.354 4.344-4.354 4.344 4.354z"/></mask><filter id="893nk" width="39" height="42" x="82" y="310" filterUnits="userSpaceOnUse"><feOffset dy="3" in="SourceGraphic" result="FeOffset1089Out"/><feGaussianBlur in="FeOffset1089Out" result="FeGaussianBlur1090Out" stdDeviation="2 2"/></filter><mask id="893nn" width="2" height="2" x="-1" y="-1"><path fill="#fff" d="M225 372h10v10h-10z"/><path d="M231.473 377.203l2.914 3.046a.982.982 0 0 1 0 1.345.882.882 0 0 1-1.286 0l-2.914-3.046-2.915 3.046a.882.882 0 0 1-1.286 0 .982.982 0 0 1 0-1.345l2.914-3.046-2.914-3.045a.982.982 0 0 1 0-1.345.882.882 0 0 1 1.286 0l2.915 3.046 2.914-3.046a.882.882 0 0 1 1.286 0 .982.982 0 0 1 0 1.345z"/></mask><filter id="893nm" width="40" height="43" x="210" y="357" filterUnits="userSpaceOnUse"><feOffset dy="3" in="SourceGraphic" result="FeOffset1105Out"/><feGaussianBlur in="FeOffset1105Out" result="FeGaussianBlur1106Out" stdDeviation="2 2"/></filter><mask id="893np" width="2" height="2" x="-1" y="-1"><path fill="#fff" d="M230 84h10v11h-10z"/><path d="M236.464 89.392l2.915 3.046a.982.982 0 0 1 0 1.345.883.883 0 0 1-1.287 0l-2.914-3.046-2.914 3.046a.883.883 0 0 1-1.287 0 .982.982 0 0 1 0-1.345l2.914-3.046-2.914-3.045a.982.982 0 0 1 0-1.345.881.881 0 0 1 1.287 0l2.914 3.046 2.914-3.046a.881.881 0 0 1 1.287 0 .982.982 0 0 1 0 1.345z"/></mask><filter id="893no" width="40" height="44" x="215" y="69" filterUnits="userSpaceOnUse"><feOffset dy="3" in="SourceGraphic" result="FeOffset1121Out"/><feGaussianBlur in="FeOffset1121Out" result="FeGaussianBlur1122Out" stdDeviation="2 2"/></filter><mask id="893nr" width="2" height="2" x="-1" y="-1"><path fill="#fff" d="M120 609h9v11h-9z"/><path d="M125.742 614.594l2.914 3.046a.982.982 0 0 1 0 1.345.881.881 0 0 1-1.286 0l-2.915-3.046-2.914 3.046a.881.881 0 0 1-1.287 0 .982.982 0 0 1 0-1.345l2.915-3.046-2.915-3.046a.982.982 0 0 1 0-1.345.882.882 0 0 1 1.287 0l2.914 3.046 2.915-3.046a.882.882 0 0 1 1.286 0 .982.982 0 0 1 0 1.345z"/></mask><filter id="893nq" width="39" height="44" x="105" y="594" filterUnits="userSpaceOnUse"><feOffset dy="3" in="SourceGraphic" result="FeOffset1137Out"/><feGaussianBlur in="FeOffset1137Out" result="FeGaussianBlur1138Out" stdDeviation="2 2"/></filter></defs><g><g><path fill="none" stroke="#ececec" stroke-miterlimit="20" stroke-width="2" d="M44.802 576.803v0S76.085 474 93.502 435.758c17.418-38.24 41.263-67.356 82.645-99.012 41.381-31.655 60.898-103.625-8.117-190.551C99.015 59.27 48.02 34.34 35.947 25.7" clip-path="url(&quot;#893na&quot;)"/></g><g><path fill="none" stroke="#ececec" stroke-miterlimit="20" stroke-width="2" d="M42.588 675.815v0s21.104.79 47.225-97.144c26.121-97.933 38.712-125.108 58.294-160.66 19.581-35.552 40.534-57.764 68.624-77.528 28.09-19.764 74.285-77.494 5.903-178.408C154.252 61.16 30.705-15.277 10.12 19.16" clip-path="url(&quot;#893nb&quot;)"/></g><g><g filter="url(#893nc)"><path fill="none" d="M147.328 220.937c7.43 0 13.453 6.198 13.453 13.844 0 7.646-6.023 13.844-13.453 13.844s-13.453-6.198-13.453-13.844c0-7.646 6.023-13.844 13.453-13.844z" mask="url(&quot;#893nd&quot;)"/><path fill="#fe3e57" fill-opacity=".4" d="M147.328 220.937c7.43 0 13.453 6.198 13.453 13.844 0 7.646-6.023 13.844-13.453 13.844s-13.453-6.198-13.453-13.844c0-7.646 6.023-13.844 13.453-13.844z"/></g><path fill="none" stroke="#fe3e57" stroke-miterlimit="20" stroke-width="4" d="M147.328 220.937c7.43 0 13.453 6.198 13.453 13.844 0 7.646-6.023 13.844-13.453 13.844s-13.453-6.198-13.453-13.844c0-7.646 6.023-13.844 13.453-13.844z" clip-path="url(&quot;#893ne&quot;)"/></g><g><g filter="url(#893nf)"><path fill="none" d="M176.281 478.187a4.227 4.227 0 0 1 4.219 4.235 4.227 4.227 0 0 1-4.219 4.234 4.227 4.227 0 0 1-4.219-4.234 4.226 4.226 0 0 1 4.22-4.235z" mask="url(&quot;#893ng&quot;)"/><path fill="#34c3ff" fill-opacity=".4" d="M176.281 478.187a4.227 4.227 0 0 1 4.219 4.235 4.227 4.227 0 0 1-4.219 4.234 4.227 4.227 0 0 1-4.219-4.234 4.226 4.226 0 0 1 4.22-4.235z"/></g><path fill="none" stroke="#34c3ff" stroke-miterlimit="20" stroke-width="4" d="M176.281 478.187a4.227 4.227 0 0 1 4.219 4.235 4.227 4.227 0 0 1-4.219 4.234 4.227 4.227 0 0 1-4.219-4.234 4.226 4.226 0 0 1 4.22-4.235z" clip-path="url(&quot;#893nh&quot;)"/></g><g><g filter="url(#893ni)"><path fill="none" d="M107.04 138.164l2.915 3.047a.981.981 0 0 1 0 1.344.881.881 0 0 1-1.287 0l-2.914-3.046-2.914 3.046a.881.881 0 0 1-1.287 0 .981.981 0 0 1 0-1.344l2.915-3.047-2.915-3.046a.982.982 0 0 1 0-1.345.883.883 0 0 1 1.287 0l2.914 3.047 2.914-3.047a.883.883 0 0 1 1.287 0 .982.982 0 0 1 0 1.345z" mask="url(&quot;#893nj&quot;)"/><path fill="#34c3ff" fill-opacity=".4" d="M107.04 138.164l2.915 3.047a.981.981 0 0 1 0 1.344.881.881 0 0 1-1.287 0l-2.914-3.046-2.914 3.046a.881.881 0 0 1-1.287 0 .981.981 0 0 1 0-1.344l2.915-3.047-2.915-3.046a.982.982 0 0 1 0-1.345.883.883 0 0 1 1.287 0l2.914 3.047 2.914-3.047a.883.883 0 0 1 1.287 0 .982.982 0 0 1 0 1.345z"/></g><path fill="#34c3ff" d="M107.04 138.164l2.915 3.047a.981.981 0 0 1 0 1.344.881.881 0 0 1-1.287 0l-2.914-3.046-2.914 3.046a.881.881 0 0 1-1.287 0 .981.981 0 0 1 0-1.344l2.915-3.047-2.915-3.046a.982.982 0 0 1 0-1.345.883.883 0 0 1 1.287 0l2.914 3.047 2.914-3.047a.883.883 0 0 1 1.287 0 .982.982 0 0 1 0 1.345z"/></g><g><g filter="url(#893nk)"><path fill="none" d="M101.613 333.811l-4.344-4.354 4.344-4.354 4.344 4.354z" mask="url(&quot;#893nl&quot;)"/><path fill="#5800e4" fill-opacity=".4" d="M101.613 333.811l-4.344-4.354 4.344-4.354 4.344 4.354z"/></g><path fill="#5800e4" d="M101.613 333.811l-4.344-4.354 4.344-4.354 4.344 4.354z"/></g><g><g filter="url(#893nm)"><path fill="none" d="M231.473 377.203l2.914 3.046a.982.982 0 0 1 0 1.345.882.882 0 0 1-1.286 0l-2.914-3.046-2.915 3.046a.882.882 0 0 1-1.286 0 .982.982 0 0 1 0-1.345l2.914-3.046-2.914-3.045a.982.982 0 0 1 0-1.345.882.882 0 0 1 1.286 0l2.915 3.046 2.914-3.046a.882.882 0 0 1 1.286 0 .982.982 0 0 1 0 1.345z" mask="url(&quot;#893nn&quot;)"/><path fill="#ffb534" fill-opacity=".4" d="M231.473 377.203l2.914 3.046a.982.982 0 0 1 0 1.345.882.882 0 0 1-1.286 0l-2.914-3.046-2.915 3.046a.882.882 0 0 1-1.286 0 .982.982 0 0 1 0-1.345l2.914-3.046-2.914-3.045a.982.982 0 0 1 0-1.345.882.882 0 0 1 1.286 0l2.915 3.046 2.914-3.046a.882.882 0 0 1 1.286 0 .982.982 0 0 1 0 1.345z"/></g><path fill="#ffb534" d="M231.473 377.203l2.914 3.046a.982.982 0 0 1 0 1.345.882.882 0 0 1-1.286 0l-2.914-3.046-2.915 3.046a.882.882 0 0 1-1.286 0 .982.982 0 0 1 0-1.345l2.914-3.046-2.914-3.045a.982.982 0 0 1 0-1.345.882.882 0 0 1 1.286 0l2.915 3.046 2.914-3.046a.882.882 0 0 1 1.286 0 .982.982 0 0 1 0 1.345z"/></g><g><g filter="url(#893no)"><path fill="none" d="M236.464 89.392l2.915 3.046a.982.982 0 0 1 0 1.345.883.883 0 0 1-1.287 0l-2.914-3.046-2.914 3.046a.883.883 0 0 1-1.287 0 .982.982 0 0 1 0-1.345l2.914-3.046-2.914-3.045a.982.982 0 0 1 0-1.345.881.881 0 0 1 1.287 0l2.914 3.046 2.914-3.046a.881.881 0 0 1 1.287 0 .982.982 0 0 1 0 1.345z" mask="url(&quot;#893np&quot;)"/><path fill="#ffb534" fill-opacity=".4" d="M236.464 89.392l2.915 3.046a.982.982 0 0 1 0 1.345.883.883 0 0 1-1.287 0l-2.914-3.046-2.914 3.046a.883.883 0 0 1-1.287 0 .982.982 0 0 1 0-1.345l2.914-3.046-2.914-3.045a.982.982 0 0 1 0-1.345.881.881 0 0 1 1.287 0l2.914 3.046 2.914-3.046a.881.881 0 0 1 1.287 0 .982.982 0 0 1 0 1.345z"/></g><path fill="#ffb534" d="M236.464 89.392l2.915 3.046a.982.982 0 0 1 0 1.345.883.883 0 0 1-1.287 0l-2.914-3.046-2.914 3.046a.883.883 0 0 1-1.287 0 .982.982 0 0 1 0-1.345l2.914-3.046-2.914-3.045a.982.982 0 0 1 0-1.345.881.881 0 0 1 1.287 0l2.914 3.046 2.914-3.046a.881.881 0 0 1 1.287 0 .982.982 0 0 1 0 1.345z"/></g><g><g filter="url(#893nq)"><path fill="none" d="M125.742 614.594l2.914 3.046a.982.982 0 0 1 0 1.345.881.881 0 0 1-1.286 0l-2.915-3.046-2.914 3.046a.881.881 0 0 1-1.287 0 .982.982 0 0 1 0-1.345l2.915-3.046-2.915-3.046a.982.982 0 0 1 0-1.345.882.882 0 0 1 1.287 0l2.914 3.046 2.915-3.046a.882.882 0 0 1 1.286 0 .982.982 0 0 1 0 1.345z" mask="url(&quot;#893nr&quot;)"/><path fill="#fe3e57" fill-opacity=".4" d="M125.742 614.594l2.914 3.046a.982.982 0 0 1 0 1.345.881.881 0 0 1-1.286 0l-2.915-3.046-2.914 3.046a.881.881 0 0 1-1.287 0 .982.982 0 0 1 0-1.345l2.915-3.046-2.915-3.046a.982.982 0 0 1 0-1.345.882.882 0 0 1 1.287 0l2.914 3.046 2.915-3.046a.882.882 0 0 1 1.286 0 .982.982 0 0 1 0 1.345z"/></g><path fill="#fe3e57" d="M125.742 614.594l2.914 3.046a.982.982 0 0 1 0 1.345.881.881 0 0 1-1.286 0l-2.915-3.046-2.914 3.046a.881.881 0 0 1-1.287 0 .982.982 0 0 1 0-1.345l2.915-3.046-2.915-3.046a.982.982 0 0 1 0-1.345.882.882 0 0 1 1.287 0l2.914 3.046 2.915-3.046a.882.882 0 0 1 1.286 0 .982.982 0 0 1 0 1.345z"/></g></g></svg>