<?xml version="1.0" encoding="UTF-8"?>
<svg xmlns="http://www.w3.org/2000/svg" xmlns:xlink="http://www.w3.org/1999/xlink" width="18px" height="18px" viewBox="0 0 18 18" version="1.1">
<g id="surface1">
<path style=" stroke:none;fill-rule:nonzero;fill:#ccccce,12.156863%,12.54902%);fill-opacity:1;" d="M 17.664062 6.675781 C 17.53125 6.28125 17.1875 5.996094 16.78125 5.933594 L 12.007812 5.203125 L 9.863281 0.636719 C 9.679688 0.246094 9.289062 0 8.859375 0 C 8.429688 0 8.039062 0.246094 7.859375 0.636719 L 5.714844 5.203125 L 0.941406 5.933594 C 0.53125 5.996094 0.191406 6.28125 0.0585938 6.675781 C -0.0742188 7.070312 0.0273438 7.503906 0.316406 7.800781 L 3.800781 11.375 L 2.976562 16.429688 C 2.90625 16.851562 3.085938 17.269531 3.433594 17.515625 C 3.777344 17.761719 4.234375 17.785156 4.605469 17.578125 L 8.859375 15.226562 L 13.113281 17.578125 C 13.28125 17.671875 13.46875 17.71875 13.652344 17.71875 C 13.875 17.71875 14.097656 17.648438 14.289062 17.515625 C 14.636719 17.269531 14.8125 16.851562 14.746094 16.429688 L 13.917969 11.375 L 17.40625 7.800781 C 17.695312 7.503906 17.792969 7.070312 17.664062 6.675781 Z M 17.664062 6.675781 "/>
</g>
</svg>
